<svg width="389" height="97" viewBox="0 0 389 97" fill="none" xmlns="http://www.w3.org/2000/svg">
<path d="M23.424 74L1.632 6.224H16.608L32.544 58.352H26.688L42.24 6.224H54.048L69.6 58.352H63.84L79.68 6.224H94.56L72.768 74H60.96L45.312 21.872H50.88L35.232 74H23.424ZM91.1275 74L118.008 6.224H131.64L158.232 74H142.296L121.944 17.744H127.416L106.776 74H91.1275ZM106.392 61.712V49.424H143.352V61.712H106.392ZM175.417 74V7.184H190.489V74H175.417ZM154.201 19.376V6.224H211.705V19.376H154.201ZM235.292 74V7.184H250.364V74H235.292ZM214.076 19.376V6.224H271.58V19.376H214.076ZM280.997 74V6.224H296.069V74H280.997ZM292.613 74V60.752H326.117V74H292.613ZM335.809 74V6.224H350.881V74H335.809ZM347.329 74V60.944H384.481V74H347.329ZM347.329 45.68V33.104H381.121V45.68H347.329ZM347.329 19.184V6.224H384.001V19.184H347.329Z" fill="white"/>
<path d="M59.23 94V83.59H60.64V94H59.23ZM60.19 94V92.71H66.16V94H60.19ZM60.19 89.29V88.06H65.665V89.29H60.19ZM60.19 84.88V83.59H66.085V84.88H60.19ZM76.1127 94L72.8427 89.23H72.5877L68.4777 83.59H70.1577L73.3977 88.075H73.6527L77.7627 94H76.1127ZM68.2977 94L72.3327 88.465L73.2927 89.305L69.8877 94H68.2977ZM73.7427 88.975L72.7977 88.135L76.0077 83.59H77.5977L73.7427 88.975ZM81.1887 89.95V88.72H84.0237C84.4137 88.72 84.7587 88.64 85.0587 88.48C85.3687 88.32 85.6087 88.095 85.7787 87.805C85.9587 87.515 86.0487 87.17 86.0487 86.77C86.0487 86.37 85.9587 86.025 85.7787 85.735C85.6087 85.445 85.3687 85.22 85.0587 85.06C84.7587 84.9 84.4137 84.82 84.0237 84.82H81.1887V83.59H84.1137C84.7537 83.59 85.3237 83.72 85.8237 83.98C86.3337 84.24 86.7337 84.61 87.0237 85.09C87.3237 85.56 87.4737 86.12 87.4737 86.77C87.4737 87.41 87.3237 87.97 87.0237 88.45C86.7337 88.92 86.3337 89.29 85.8237 89.56C85.3237 89.82 84.7537 89.95 84.1137 89.95H81.1887ZM80.2437 94V83.59H81.6537V94H80.2437ZM90.2232 94V83.59H91.6332V94H90.2232ZM91.1832 94V92.71H97.1532V94H91.1832ZM91.1832 89.29V88.06H96.6582V89.29H91.1832ZM91.1832 84.88V83.59H97.0782V84.88H91.1832ZM101.016 89.47V88.285H103.836C104.446 88.285 104.916 88.13 105.246 87.82C105.576 87.51 105.741 87.09 105.741 86.56C105.741 86.06 105.576 85.645 105.246 85.315C104.926 84.985 104.461 84.82 103.851 84.82H101.016V83.59H103.896C104.556 83.59 105.131 83.72 105.621 83.98C106.111 84.23 106.486 84.575 106.746 85.015C107.016 85.455 107.151 85.96 107.151 86.53C107.151 87.12 107.016 87.635 106.746 88.075C106.486 88.515 106.111 88.86 105.621 89.11C105.131 89.35 104.556 89.47 103.896 89.47H101.016ZM100.071 94V83.59H101.481V94H100.071ZM106.071 94L102.291 89.335L103.626 88.87L107.856 94H106.071ZM112.517 94V83.89H113.927V94H112.517ZM108.977 84.88V83.59H117.452V84.88H108.977ZM124.018 94V83.59H125.428V94H124.018ZM124.978 89.425V88.135H130.408V89.425H124.978ZM124.978 84.88V83.59H130.663V84.88H124.978ZM133.514 94V83.59H134.924V94H133.514ZM138.381 94V83.59H139.371L139.791 85.225V94H138.381ZM145.581 94L139.191 85.465L139.371 83.59L145.776 92.11L145.581 94ZM145.581 94L145.161 92.455V83.59H146.571V94H145.581ZM149.266 94L153.526 83.59H154.546L158.791 94H157.261L153.766 85.195H154.291L150.766 94H149.266ZM151.291 91.645V90.415H156.766V91.645H151.291ZM161.358 94V83.59H162.348L162.768 85.225V94H161.358ZM168.558 94L162.168 85.465L162.348 83.59L168.753 92.11L168.558 94ZM168.558 94L168.138 92.455V83.59H169.548V94H168.558ZM177.732 94.15C176.982 94.15 176.287 94.015 175.647 93.745C175.007 93.465 174.447 93.08 173.967 92.59C173.497 92.1 173.132 91.53 172.872 90.88C172.612 90.23 172.482 89.535 172.482 88.795C172.482 88.045 172.612 87.345 172.872 86.695C173.132 86.045 173.497 85.48 173.967 85C174.447 84.51 175.002 84.13 175.632 83.86C176.272 83.58 176.967 83.44 177.717 83.44C178.537 83.44 179.257 83.58 179.877 83.86C180.497 84.14 181.047 84.52 181.527 85L180.552 85.975C180.222 85.605 179.817 85.315 179.337 85.105C178.867 84.895 178.327 84.79 177.717 84.79C177.167 84.79 176.662 84.89 176.202 85.09C175.742 85.28 175.342 85.555 175.002 85.915C174.662 86.275 174.397 86.7 174.207 87.19C174.027 87.68 173.937 88.215 173.937 88.795C173.937 89.375 174.027 89.91 174.207 90.4C174.397 90.89 174.662 91.315 175.002 91.675C175.342 92.035 175.742 92.315 176.202 92.515C176.662 92.705 177.167 92.8 177.717 92.8C178.367 92.8 178.932 92.695 179.412 92.485C179.892 92.265 180.297 91.97 180.627 91.6L181.602 92.56C181.122 93.06 180.557 93.45 179.907 93.73C179.267 94.01 178.542 94.15 177.732 94.15ZM184.334 94V83.59H185.744V94H184.334ZM188.437 94L192.697 83.59H193.717L197.962 94H196.432L192.937 85.195H193.462L189.937 94H188.437ZM190.462 91.645V90.415H195.937V91.645H190.462ZM200.529 94V83.59H201.939V94H200.529ZM201.489 94V92.71H207.069V94H201.489ZM212.618 94L216.878 83.59H217.898L222.143 94H220.613L217.118 85.195H217.643L214.118 94H212.618ZM214.643 91.645V90.415H220.118V91.645H214.643ZM224.71 94V83.59H225.7L226.12 85.225V94H224.71ZM231.91 94L225.52 85.465L225.7 83.59L232.105 92.11L231.91 94ZM231.91 94L231.49 92.455V83.59H232.9V94H231.91ZM237.29 94V92.71H240.185C240.955 92.71 241.63 92.545 242.21 92.215C242.79 91.875 243.24 91.41 243.56 90.82C243.89 90.23 244.055 89.55 244.055 88.78C244.055 88.02 243.89 87.345 243.56 86.755C243.23 86.165 242.775 85.705 242.195 85.375C241.615 85.045 240.945 84.88 240.185 84.88H237.305V83.59H240.215C240.975 83.59 241.675 83.72 242.315 83.98C242.965 84.24 243.525 84.605 243.995 85.075C244.475 85.545 244.845 86.095 245.105 86.725C245.375 87.355 245.51 88.045 245.51 88.795C245.51 89.535 245.375 90.225 245.105 90.865C244.845 91.495 244.48 92.045 244.01 92.515C243.54 92.985 242.98 93.35 242.33 93.61C241.69 93.87 240.995 94 240.245 94H237.29ZM236.36 94V83.59H237.77V94H236.36ZM255.109 94V83.89H256.519V94H255.109ZM251.569 84.88V83.59H260.044V84.88H251.569ZM260.45 94L264.71 83.59H265.73L269.975 94H268.445L264.95 85.195H265.475L261.95 94H260.45ZM262.475 91.645V90.415H267.95V91.645H262.475ZM279.123 94L275.853 89.23H275.598L271.488 83.59H273.168L276.408 88.075H276.663L280.773 94H279.123ZM271.308 94L275.343 88.465L276.303 89.305L272.898 94H271.308ZM276.753 88.975L275.808 88.135L279.018 83.59H280.608L276.753 88.975ZM292.305 94.15C291.555 94.15 290.86 94.015 290.22 93.745C289.58 93.465 289.02 93.08 288.54 92.59C288.07 92.1 287.705 91.53 287.445 90.88C287.185 90.23 287.055 89.535 287.055 88.795C287.055 88.045 287.185 87.345 287.445 86.695C287.705 86.045 288.07 85.48 288.54 85C289.02 84.51 289.575 84.13 290.205 83.86C290.845 83.58 291.54 83.44 292.29 83.44C293.11 83.44 293.83 83.58 294.45 83.86C295.07 84.14 295.62 84.52 296.1 85L295.125 85.975C294.795 85.605 294.39 85.315 293.91 85.105C293.44 84.895 292.9 84.79 292.29 84.79C291.74 84.79 291.235 84.89 290.775 85.09C290.315 85.28 289.915 85.555 289.575 85.915C289.235 86.275 288.97 86.7 288.78 87.19C288.6 87.68 288.51 88.215 288.51 88.795C288.51 89.375 288.6 89.91 288.78 90.4C288.97 90.89 289.235 91.315 289.575 91.675C289.915 92.035 290.315 92.315 290.775 92.515C291.235 92.705 291.74 92.8 292.29 92.8C292.94 92.8 293.505 92.695 293.985 92.485C294.465 92.265 294.87 91.97 295.2 91.6L296.175 92.56C295.695 93.06 295.13 93.45 294.48 93.73C293.84 94.01 293.115 94.15 292.305 94.15ZM303.222 94.15C302.482 94.15 301.792 94.015 301.152 93.745C300.512 93.465 299.952 93.08 299.472 92.59C298.992 92.09 298.617 91.515 298.347 90.865C298.087 90.215 297.957 89.52 297.957 88.78C297.957 88.03 298.087 87.335 298.347 86.695C298.617 86.045 298.987 85.475 299.457 84.985C299.937 84.495 300.492 84.115 301.122 83.845C301.762 83.575 302.452 83.44 303.192 83.44C303.932 83.44 304.617 83.575 305.247 83.845C305.887 84.115 306.447 84.495 306.927 84.985C307.407 85.475 307.782 86.045 308.052 86.695C308.322 87.345 308.457 88.045 308.457 88.795C308.457 89.535 308.322 90.23 308.052 90.88C307.782 91.53 307.407 92.1 306.927 92.59C306.457 93.08 305.902 93.465 305.262 93.745C304.632 94.015 303.952 94.15 303.222 94.15ZM303.192 92.8C303.942 92.8 304.597 92.63 305.157 92.29C305.727 91.94 306.177 91.465 306.507 90.865C306.837 90.255 307.002 89.56 307.002 88.78C307.002 88.2 306.907 87.67 306.717 87.19C306.527 86.7 306.262 86.275 305.922 85.915C305.582 85.555 305.182 85.28 304.722 85.09C304.262 84.89 303.752 84.79 303.192 84.79C302.452 84.79 301.797 84.96 301.227 85.3C300.667 85.64 300.222 86.11 299.892 86.71C299.572 87.31 299.412 88 299.412 88.78C299.412 89.36 299.502 89.9 299.682 90.4C299.872 90.89 300.132 91.315 300.462 91.675C300.802 92.025 301.202 92.3 301.662 92.5C302.132 92.7 302.642 92.8 303.192 92.8ZM311.391 94V83.59H312.381L312.801 85.225V94H311.391ZM318.591 94L312.201 85.465L312.381 83.59L318.786 92.11L318.591 94ZM318.591 94L318.171 92.455V83.59H319.581V94H318.591ZM325.73 94.15C324.91 94.15 324.21 94 323.63 93.7C323.05 93.4 322.535 92.965 322.085 92.395L323.045 91.435C323.375 91.895 323.755 92.245 324.185 92.485C324.615 92.715 325.145 92.83 325.775 92.83C326.395 92.83 326.89 92.695 327.26 92.425C327.64 92.155 327.83 91.785 327.83 91.315C327.83 90.925 327.74 90.61 327.56 90.37C327.38 90.13 327.135 89.935 326.825 89.785C326.525 89.625 326.195 89.485 325.835 89.365C325.475 89.235 325.115 89.1 324.755 88.96C324.395 88.81 324.065 88.63 323.765 88.42C323.465 88.2 323.22 87.915 323.03 87.565C322.85 87.215 322.76 86.775 322.76 86.245C322.76 85.655 322.9 85.155 323.18 84.745C323.47 84.325 323.86 84.005 324.35 83.785C324.85 83.555 325.41 83.44 326.03 83.44C326.71 83.44 327.32 83.575 327.86 83.845C328.4 84.105 328.84 84.45 329.18 84.88L328.22 85.84C327.91 85.48 327.575 85.21 327.215 85.03C326.865 84.85 326.46 84.76 326 84.76C325.44 84.76 324.995 84.885 324.665 85.135C324.335 85.375 324.17 85.715 324.17 86.155C324.17 86.505 324.26 86.79 324.44 87.01C324.63 87.22 324.875 87.4 325.175 87.55C325.475 87.7 325.805 87.84 326.165 87.97C326.535 88.09 326.9 88.225 327.26 88.375C327.62 88.525 327.95 88.715 328.25 88.945C328.55 89.175 328.79 89.475 328.97 89.845C329.16 90.205 329.255 90.66 329.255 91.21C329.255 92.13 328.935 92.85 328.295 93.37C327.665 93.89 326.81 94.15 325.73 94.15ZM336.232 94.15C335.462 94.15 334.772 93.98 334.162 93.64C333.562 93.29 333.087 92.815 332.737 92.215C332.387 91.605 332.212 90.915 332.212 90.145V83.59H333.622V90.115C333.622 90.665 333.737 91.14 333.967 91.54C334.197 91.94 334.507 92.25 334.897 92.47C335.297 92.69 335.742 92.8 336.232 92.8C336.742 92.8 337.187 92.69 337.567 92.47C337.957 92.25 338.262 91.94 338.482 91.54C338.712 91.14 338.827 90.67 338.827 90.13V83.59H340.252V90.16C340.252 90.93 340.077 91.615 339.727 92.215C339.377 92.815 338.902 93.29 338.302 93.64C337.702 93.98 337.012 94.15 336.232 94.15ZM343.571 94V83.59H344.981V94H343.571ZM344.531 94V92.71H350.111V94H344.531ZM354.245 94V83.89H355.655V94H354.245ZM350.705 84.88V83.59H359.18V84.88H350.705ZM361.86 94V83.59H363.27V94H361.86ZM366.727 94V83.59H367.717L368.137 85.225V94H366.727ZM373.927 94L367.537 85.465L367.717 83.59L374.122 92.11L373.927 94ZM373.927 94L373.507 92.455V83.59H374.917V94H373.927ZM383.086 94.15C382.356 94.15 381.671 94.015 381.031 93.745C380.401 93.465 379.846 93.08 379.366 92.59C378.896 92.1 378.526 91.53 378.256 90.88C377.986 90.23 377.851 89.53 377.851 88.78C377.851 88.03 377.986 87.335 378.256 86.695C378.526 86.045 378.901 85.475 379.381 84.985C379.861 84.495 380.421 84.115 381.061 83.845C381.711 83.575 382.416 83.44 383.176 83.44C384.006 83.44 384.771 83.6 385.471 83.92C386.171 84.24 386.756 84.7 387.226 85.3L386.251 86.275C385.921 85.795 385.486 85.43 384.946 85.18C384.406 84.92 383.816 84.79 383.176 84.79C382.416 84.79 381.741 84.96 381.151 85.3C380.571 85.64 380.116 86.11 379.786 86.71C379.466 87.31 379.306 88 379.306 88.78C379.306 89.57 379.471 90.265 379.801 90.865C380.131 91.465 380.576 91.935 381.136 92.275C381.696 92.615 382.336 92.785 383.056 92.785C383.786 92.785 384.416 92.645 384.946 92.365C385.486 92.085 385.901 91.675 386.191 91.135C386.481 90.585 386.626 89.915 386.626 89.125L387.481 89.74H382.981V88.45H388.081V88.66C388.081 89.87 387.866 90.885 387.436 91.705C387.016 92.515 386.426 93.125 385.666 93.535C384.916 93.945 384.056 94.15 383.086 94.15Z" fill="white"/>
</svg>
