<svg width="514" height="171" viewBox="0 0 514 171" fill="none" xmlns="http://www.w3.org/2000/svg">
<path d="M30.208 132.384L7.552 56.224C6.95467 54.2613 6.31467 52.8533 5.632 52C4.94933 51.0613 3.75467 50.208 2.048 49.44L0.512 48.8V47.52H34.432V48.8L31.744 49.824C29.7813 50.592 28.4587 51.5307 27.776 52.64C27.0933 53.7493 27.0507 55.2853 27.648 57.248L41.6 110.496L56.704 65.824L53.76 56.736C53.1627 54.944 52.608 53.5787 52.096 52.64C51.584 51.7013 50.7307 50.9333 49.536 50.336L46.72 48.8V47.52H78.848V48.8L74.88 50.336C73.1733 50.9333 72.192 51.8293 71.936 53.024C71.7653 54.1333 71.9787 55.584 72.576 57.376L88.832 111.776L104.192 58.4C104.789 56.352 105.003 54.56 104.832 53.024C104.661 51.488 103.595 50.3787 101.632 49.696L98.944 48.8V47.52H116.736V48.8L113.408 50.08C111.701 50.6773 110.507 51.616 109.824 52.896C109.141 54.176 108.544 55.7547 108.032 57.632L86.784 132.384H77.952L58.752 72.224L39.04 132.384H30.208ZM109.774 132V130.72L112.974 129.568C114.681 128.885 116.003 128.075 116.942 127.136C117.881 126.112 118.649 124.704 119.246 122.912L145.614 47.264H156.494L182.478 123.424C183.161 125.301 183.929 126.752 184.782 127.776C185.635 128.715 186.958 129.525 188.75 130.208L190.286 130.72V132H157.774V130.72L159.694 130.08C161.486 129.397 162.553 128.459 162.894 127.264C163.321 125.984 163.278 124.491 162.766 122.784L156.75 104.352H128.334L122.19 122.4C121.593 124.277 121.379 125.771 121.55 126.88C121.806 127.989 122.83 128.885 124.622 129.568L127.438 130.72V132H109.774ZM129.23 101.792H155.982L143.054 61.984L129.23 101.792ZM207.843 132V130.72L213.091 129.44C216.59 128.672 218.339 126.539 218.339 123.04V50.08H207.459C204.302 50.08 202.04 50.9333 200.675 52.64C199.31 54.2613 197.859 56.5227 196.323 59.424L191.715 68.384H190.435L191.075 47.52H264.931L265.443 68.384H264.163L259.555 59.424C258.104 56.5227 256.696 54.2613 255.331 52.64C253.966 50.9333 251.704 50.08 248.547 50.08H237.667V123.04C237.667 126.539 239.416 128.672 242.915 129.44L248.163 130.72V132H207.843ZM293.593 132V130.72L298.841 129.44C302.34 128.672 304.089 126.539 304.089 123.04V50.08H293.209C290.052 50.08 287.79 50.9333 286.425 52.64C285.06 54.2613 283.609 56.5227 282.073 59.424L277.465 68.384H276.185L276.825 47.52H350.681L351.193 68.384H349.913L345.305 59.424C343.854 56.5227 342.446 54.2613 341.081 52.64C339.716 50.9333 337.454 50.08 334.297 50.08H323.417V123.04C323.417 126.539 325.166 128.672 328.665 129.44L333.913 130.72V132H293.593ZM361.691 132V130.72L364.379 129.696C366.171 129.013 367.28 128.203 367.707 127.264C368.219 126.24 368.475 124.875 368.475 123.168V56.352C368.475 54.6453 368.219 53.28 367.707 52.256C367.195 51.232 366.086 50.4213 364.379 49.824L361.691 48.8V47.52H394.331V48.8L392.027 49.824C390.406 50.4213 389.296 51.2747 388.699 52.384C388.102 53.408 387.803 54.7733 387.803 56.48V129.44H407.515C410.672 129.44 412.976 128.672 414.427 127.136C415.963 125.6 417.414 123.381 418.779 120.48L423.771 109.728H425.051L423.899 132H361.691ZM434.691 132V130.72L437.635 129.568C439.086 128.971 440.067 128.203 440.579 127.264C441.176 126.24 441.475 124.875 441.475 123.168V56.352C441.475 54.6453 441.219 53.3227 440.707 52.384C440.28 51.36 439.256 50.5493 437.635 49.952L434.691 48.8V47.52H496.003L496.771 67.232H495.491L489.987 55.2C489.219 53.664 488.408 52.4267 487.555 51.488C486.702 50.5493 485.422 50.08 483.715 50.08H460.675V87.072H474.371C476.078 87.072 477.358 86.6453 478.211 85.792C479.15 84.8533 479.96 83.616 480.643 82.08L483.203 76.96H484.483V100H483.203L480.643 94.624C479.875 93.088 479.064 91.8933 478.211 91.04C477.358 90.1013 476.078 89.632 474.371 89.632H460.675V129.44H486.531C488.238 129.44 489.56 129.013 490.499 128.16C491.438 127.221 492.206 125.941 492.803 124.32L498.051 112.288H499.331L498.563 132H434.691Z" fill="#31B1A7"/>
</svg>
